<svg width="32" height="32" viewBox="0 0 32 32" fill="none" xmlns="http://www.w3.org/2000/svg">
<g clip-path="url(#clip0_128_30)">
<path d="M29.3333 16H30.6666M16 2.66668V1.33334M16 30.6667V29.3333M26.6666 26.6667L25.3333 25.3333M26.6666 5.33334L25.3333 6.66668M5.33331 26.6667L6.66665 25.3333M5.33331 5.33334L6.66665 6.66668M1.33331 16H2.66665M13.2693 12.8307L15.348 8.42401C15.404 8.29783 15.4954 8.19062 15.6111 8.11536C15.7269 8.04011 15.8619 8.00006 16 8.00006C16.138 8.00006 16.2731 8.04011 16.3888 8.11536C16.5046 8.19062 16.596 8.29783 16.652 8.42401L18.7306 12.8307L23.3773 13.5413C23.9733 13.632 24.2106 14.4 23.78 14.84L20.4173 18.2667L21.2106 23.108C21.3133 23.7307 20.6893 24.204 20.156 23.9107L16 21.624L11.844 23.9107C11.3106 24.204 10.6866 23.7307 10.7893 23.108L11.5826 18.268L8.21998 14.84C7.78931 14.4 8.02665 13.632 8.62265 13.5413L13.2693 12.8307Z" stroke="#9747FF" stroke-width="2" stroke-linecap="round" stroke-linejoin="round"/>
</g>
<defs>
<clipPath id="clip0_128_30">
<rect width="32" height="32" fill="white"/>
</clipPath>
</defs>
</svg>
